
    <svg xmlns="http://www.w3.org/2000/svg" width="200" height="355">
        <text x="10" y="20" font-size="12" font-weight="bold" fill="black">Node Shapes:</text><rect x="20" y="33" width="15" height="15" fill="gray"/><text x="50" y="45" font-size="12" font-weight="normal" fill="black">Terminal (in or out)</text><polygon points="27.5,58 20,73 35,73" fill="gray"/><text x="50" y="70" font-size="12" font-weight="normal" fill="black">Isolated</text><ellipse cx="27.5" cy="90.5" rx="7.5" ry="7.5" fill="gray"/><text x="50" y="95" font-size="12" font-weight="normal" fill="black">Regular</text><text x="10" y="120" font-size="12" font-weight="bold" fill="black">Node Colors by base:</text><rect x="20" y="133" width="15" height="15" fill="#1f77b4"/><text x="50" y="145" font-size="12" font-weight="normal" fill="black">A</text><rect x="20" y="158" width="15" height="15" fill="#ff7f0e"/><text x="50" y="170" font-size="12" font-weight="normal" fill="black">B</text><rect x="20" y="183" width="15" height="15" fill="#2ca02c"/><text x="50" y="195" font-size="12" font-weight="normal" fill="black">C</text><rect x="20" y="208" width="15" height="15" fill="#d62728"/><text x="50" y="220" font-size="12" font-weight="normal" fill="black">D</text><rect x="20" y="233" width="15" height="15" fill="#9467bd"/><text x="50" y="245" font-size="12" font-weight="normal" fill="black">E</text><text x="10" y="270" font-size="12" font-weight="bold" fill="black">Edge Colors:</text><line x1="20" y1="288" x2="40" y2="288" stroke="#1f77b4" stroke-width="3"/><text x="50" y="295" font-size="12" font-weight="normal" fill="black">Posterior</text><line x1="20" y1="313" x2="40" y2="313" stroke="#ff7f0e" stroke-width="3"/><text x="50" y="320" font-size="12" font-weight="normal" fill="black">tCCD summary</text>
    </svg>
    